<svg width="1599" height="515" viewBox="0 0 1599 515" fill="none" xmlns="http://www.w3.org/2000/svg">
<path fill-rule="evenodd" clip-rule="evenodd" d="M556.567 151.541V179.972H619.942C655.197 179.972 684.025 208.804 684.025 244.058V265.831C684.025 301.085 655.197 329.913 619.942 329.913H556.567V358.344H628.562C674.548 358.344 712.19 320.702 712.19 274.716V235.165C712.19 189.18 674.548 151.537 628.562 151.537H556.567V151.541ZM1417.37 359.209V277.176C1417.37 255.111 1430.67 241.251 1450.75 241.251C1469.42 241.251 1481.3 253.131 1481.3 274.911V359.205H1507.6V277.172C1507.6 255.107 1520.9 240.967 1540.98 240.967C1559.65 240.967 1571.82 253.412 1571.82 275.196V359.209H1597.84V268.69C1597.84 236.726 1578.61 216.926 1546.92 216.926C1525.42 216.926 1508.73 227.675 1502.23 244.93C1495.16 227.675 1479.88 216.926 1458.39 216.926C1438.87 216.926 1424.16 225.976 1417.09 238.99L1414.54 220.886H1390.78V359.209H1417.37ZM1326 220.886V293.865C1326 323.565 1312.71 339.125 1288.38 339.125C1268.02 339.125 1255.29 327.81 1255.29 298.11V220.886H1228.7V306.879C1228.7 340.824 1246.8 362.604 1279.05 362.604C1299.41 362.604 1317.8 352.704 1325.72 338.279L1328.55 359.213H1352.31V220.89H1326V220.886ZM1205.5 219.755C1200.12 218.625 1196.16 218.056 1191.35 218.056C1172.4 218.056 1158.54 227.675 1152.88 242.101L1151.19 221.167H1126.3V359.205H1152.88V285.941C1152.88 259.352 1168.44 244.077 1193.62 244.077H1205.5V219.752V219.755ZM1075.38 359.209V243.231H1102.54V220.886H1075.38V177.607H1048.79V220.886H1021.64V243.231H1048.79V359.209H1075.38ZM908.487 359.209L942.432 308.575L976.942 359.209H1007.78L960.536 290.755L1008.63 220.886H978.36L944.131 272.37L909.056 220.886H878.222L926.311 290.755L877.942 359.209H908.491H908.487ZM806.089 362.604C840.318 362.604 863.513 345.914 870.298 316.214H845.408C840.883 332.054 827.304 340.539 806.654 340.539C780.349 340.539 765.074 324.415 763.094 295.28L870.018 294.996V285.096C870.018 244.081 844.278 216.926 804.958 216.926C764.789 216.926 737.354 246.91 737.354 290.19C737.354 333.185 765.358 362.604 806.093 362.604H806.089ZM804.958 239.275C828.438 239.275 843.428 254.55 843.428 277.464H763.659C767.054 253.139 781.764 239.275 804.958 239.275Z" fill="#C0C9CE" stroke="#C0C9CE" stroke-width="1.1341" stroke-miterlimit="2.61313"></path>
<path fill-rule="evenodd" clip-rule="evenodd" d="M477.537 211.607L451.304 216.975C433.82 131.166 360.948 65.1011 271.053 58.5823L269.211 157.126C323.836 157.126 376.159 175.531 386.548 242.517L462.111 242.057L510.994 241.309L481.869 253.569C478.444 360.373 418.595 451.779 305.82 477.048L299.963 450.93C385.843 431.777 450.772 357.092 455.089 266.506L387.325 266.923C381.166 335.852 327.851 358.761 270.046 358.761V466.342L270.65 514.549L256.706 482.214C147.413 477.336 57.5894 412.278 35.3566 300.179L61.6186 294.969C78.8868 382.462 153.5 450.441 245.626 455.42V358.761H194.353H159.731H131.253H126.763L155.414 301.546H211.909L201.534 336.6H228.616H256.807C300.064 336.6 335.449 301.215 335.449 257.958C335.449 214.701 300.064 179.316 256.807 179.316H201.52L211.895 214.37C211.895 214.37 174.602 225.235 155.399 214.37C133.65 202.065 126.748 157.155 126.748 157.155H131.238H159.716H194.339H244.762L246.618 58.5392L247.698 0L259.829 31.5864C365.553 37.9756 454.527 99.4216 477.509 211.636L477.537 211.607ZM258.217 246.676C257.742 246.719 257.253 246.748 256.764 246.748C272.722 246.748 275.629 268.002 259.383 271.067C192.181 271.283 125.669 271.499 58.7118 271.729V271.945H0L31.1691 259.167C34.2342 149.053 101.148 57.1721 213.521 35.371L218.615 61.6474C130.389 78.6854 62.3238 154.234 57.8916 247.324C124.935 247.108 191.303 246.892 258.231 246.662L258.217 246.676Z" fill="#C0C9CE"></path>
</svg>